# xmcd CD database file
#
# Track frame offsets:
#	150
#	20275
#	33342
#	46006
#	63542
#	82567
#	98683
#	121874
#	138498
#	153261
#	167539
#	183047
#
# Disc length: 2598 seconds
#
# Revision: 0
# Processed by: cddbd v1.5.2PL0 Copyright (c) Steve Scherf et al.
# Submitted via: CDex 1.70beta2
#
DISCID=7d0a240c
DTITLE=Hildegunn Coucheronn - Øya mi e øya di
DYEAR=2011
DGENRE=VisePop
TTITLE0=Øya mi
TTITLE1=Eg vil
TTITLE2=Månemyr
TTITLE3=Sangen om øyen
TTITLE4=Anne Line
TTITLE5=Ka førr
TTITLE6=Drømmen om landet
TTITLE7=Pensjonist
TTITLE8=Det vi treng
TTITLE9=Høstsang
TTITLE10=Kjærtegn
TTITLE11=Nordavind
EXTD=YEAR: 2011
EXTT0=
EXTT1=
EXTT2=
EXTT3=
EXTT4=
EXTT5=
EXTT6=
EXTT7=
EXTT8=
EXTT9=
EXTT10=
EXTT11=
PLAYORDER=
